<?xml version="1.0" encoding="UTF-8" standalone="no"?>
<!-- Created with Inkscape (http://www.inkscape.org/) -->

<svg
   xmlns:dc="http://purl.org/dc/elements/1.1/"
   xmlns:cc="http://creativecommons.org/ns#"
   xmlns:rdf="http://www.w3.org/1999/02/22-rdf-syntax-ns#"
   xmlns:svg="http://www.w3.org/2000/svg"
   xmlns="http://www.w3.org/2000/svg"
   xmlns:sodipodi="http://sodipodi.sourceforge.net/DTD/sodipodi-0.dtd"
   xmlns:inkscape="http://www.inkscape.org/namespaces/inkscape"
   width="173.86549mm"
   height="242.75926mm"
   viewBox="0 0 616.05884 860.17061"
   id="svg3369"
   version="1.1"
   inkscape:version="0.91 r13725"
   sodipodi:docname="Europa League.svg">
  <defs
     id="defs3371" />
  <sodipodi:namedview
     id="base"
     pagecolor="#ffffff"
     bordercolor="#666666"
     borderopacity="1.0"
     inkscape:pageopacity="0.0"
     inkscape:pageshadow="2"
     inkscape:zoom="0.7"
     inkscape:cx="258.97939"
     inkscape:cy="358.83729"
     inkscape:document-units="px"
     inkscape:current-layer="layer1"
     showgrid="false"
     fit-margin-bottom="5"
     fit-margin-left="5"
     fit-margin-top="3"
     fit-margin-right="5"
     inkscape:window-width="1920"
     inkscape:window-height="1017"
     inkscape:window-x="-8"
     inkscape:window-y="-8"
     inkscape:window-maximized="1" />
  <metadata
     id="metadata3374">
    <rdf:RDF>
      <cc:Work
         rdf:about="">
        <dc:format>image/svg+xml</dc:format>
        <dc:type
           rdf:resource="http://purl.org/dc/dcmitype/StillImage" />
        <dc:title></dc:title>
      </cc:Work>
    </rdf:RDF>
  </metadata>
  <g
     inkscape:label="Calque 1"
     inkscape:groupmode="layer"
     id="layer1"
     transform="translate(-60.542045,-102.96343)">
    <path
       id="path3399"
       style="fill:#000000"
       d="m 217.23644,645.8528 c -1.50032,-1.50732 -2.72786,-2.83495 -2.72786,-2.9503 0,-0.39402 10.77215,-10.32392 15.46875,-14.2593 25.34893,-21.24035 55.76824,-36.58632 87.38185,-44.0825 15.85748,-3.7601 28.9744,-5.3384 46.31185,-5.57247 17.65435,-0.23835 29.68913,0.78772 45.20028,3.8537 39.83492,7.8738 77.194,27.46457 106.41953,55.80545 l 4.52582,4.38882 -2.88842,2.73963 -2.8884,2.73965 -3.682,-3.47668 c -10.8995,-10.29172 -19.60655,-17.2506 -30.84926,-24.65537 -26.59622,-17.5172 -57.80617,-28.7151 -89.84375,-32.23535 -14.10205,-1.5495 -30.56335,-1.55465 -45,-0.014 -39.18703,4.18185 -77.13578,20.1259 -107.8125,45.29712 -4.23885,3.47813 -11.49451,10.0259 -14.52222,13.1054 -1.11222,1.13125 -2.09953,2.05683 -2.19402,2.05683 -0.0945,0 -1.39933,-1.23325 -2.89965,-2.74058 z m 172.92562,9.90904 c -3.5836,-0.9879 -4.89573,-1.88554 -5.19105,-3.55136 -0.26845,-1.51413 8.89782,-36.22973 10.3462,-39.1843 1.98157,-4.04225 5.53145,-6.81355 9.74147,-7.60485 3.3565,-0.6309 6.3756,-0.1477 17.86255,2.85897 5.91605,1.5485 10.79945,2.8585 10.85205,2.91108 0.10483,0.10485 -2.2715,9.2723 -2.44112,9.41745 -0.0577,0.0494 -4.5345,-1.08613 -9.94858,-2.52325 -5.41405,-1.43713 -10.6875,-2.6934 -11.71875,-2.79175 -2.36717,-0.22575 -3.77037,0.427 -4.74175,2.20577 -0.83312,1.5257 -2.67702,8.02425 -2.3609,8.32065 0.12523,0.11738 5.41838,1.5621 11.7626,3.2105 6.3442,1.64838 11.56638,3.03288 11.6048,3.0767 0.12053,0.13738 -2.19167,8.92335 -2.4043,9.13593 -0.11117,0.11112 -5.35575,-1.1524 -11.6547,-2.80783 -6.29892,-1.65545 -11.6108,-2.95717 -11.80415,-2.89272 -0.19335,0.0644 -1.44525,4.32797 -2.782,9.47445 -3.0591,11.77751 -3.038,11.70706 -3.4915,11.67116 -0.20797,-0.0165 -1.84185,-0.43345 -3.63087,-0.9266 z m -61.43473,1.78475 c -4.07265,-1.06075 -6.92818,-3.46401 -8.89681,-7.48776 -1.32991,-2.7182 -0.90022,-0.82023 -7.37546,-32.57825 -1.42718,-6.99963 -1.45454,-7.23783 -0.95287,-8.295 0.28407,-0.59863 0.90175,-1.316 1.37262,-1.59415 0.94258,-0.55683 33.31067,-7.26595 33.92222,-7.0313 0.34958,0.13417 2.3208,9.18225 2.04855,9.40307 -0.065,0.0527 -5.91902,1.26765 -13.00887,2.6998 -10.72994,2.16748 -12.89063,2.6905 -12.89063,3.12048 0,0.67895 2.14788,11.3119 2.31972,11.48377 0.073,0.0729 5.43066,-0.94905 11.90598,-2.27112 6.4753,-1.32208 11.8799,-2.28403 12.0102,-2.13765 0.4005,0.4499 1.95333,8.92302 1.6785,9.15902 -0.142,0.12195 -5.39095,1.2491 -11.6644,2.50483 -6.27345,1.25572 -11.53334,2.39762 -11.68865,2.5376 -0.41413,0.37317 0.93393,6.74367 1.77933,8.40842 0.8587,1.69098 2.26397,2.49883 4.34792,2.4995 0.80843,2.5e-4 5.92873,-0.91355 11.37843,-2.03075 5.44972,-1.11717 10.13237,-2.03125 10.40595,-2.03125 0.38972,0 0.70837,1.01995 1.4724,4.71258 0.67185,3.24707 0.86595,4.74707 0.62422,4.82352 -0.19297,0.061 -4.99147,1.05535 -10.66335,2.20964 -11.14187,2.2675 -15.10417,2.68175 -18.125,1.895 z m -64.0625,30.29515 c -3.5368,-0.87375 -7.14576,-3.11765 -10.16635,-6.3211 -2.44915,-2.59745 -21.50875,-26.1437 -21.46753,-26.52105 0.0334,-0.30561 7.38563,-6.40624 7.72058,-6.40624 0.0933,0 4.51433,5.34735 9.82447,11.88299 11.18333,13.76435 12.96217,15.60465 15.98567,16.53855 2.74232,0.847 5.08773,0.8097 7.73068,-0.12305 3.86306,-1.36325 7.3028,-4.6264 8.66455,-8.2197 0.87247,-2.3022 0.92978,-5.86815 0.12683,-7.8913 -0.96665,-2.4356 -2.30028,-4.22885 -12.29109,-16.52711 -5.35982,-6.59773 -9.70468,-12.10168 -9.65523,-12.231 0.12361,-0.32323 7.48431,-6.24188 7.76269,-6.24188 0.21928,0 17.11998,20.62983 20.71223,25.28235 2.08503,2.70043 4.05809,6.61134 4.5556,9.02989 0.484,2.3529 0.41359,6.74535 -0.14621,9.1205 -1.11553,4.7331 -4.408,9.62 -8.92858,13.25225 -2.88873,2.32115 -7.23323,4.61925 -10.10334,5.3444 -2.24899,0.56825 -8.08013,0.586 -10.32497,0.0315 z m 202.34375,6.8016 c -2.14842,-1.96535 -4.08167,-3.7485 -4.29612,-3.96265 -0.31143,-0.3111 -0.10715,-1.37425 1.01562,-5.28575 0.77303,-2.69305 1.4055,-5.02645 1.4055,-5.1854 0,-0.15895 -2.24975,-2.02415 -4.99947,-4.1449 l -4.99945,-3.8559 4.21767,-2.7452 c 2.31975,-1.50985 4.3234,-2.74395 4.4526,-2.7424 0.12918,0.005 1.1381,0.70385 2.24195,1.56065 1.10393,0.8568 2.05363,1.5113 2.11048,1.45445 0.0569,-0.0569 1.2786,-4.14545 2.71497,-9.0857 2.04905,-7.04756 2.50315,-8.95236 2.10828,-8.84344 -0.2768,0.0764 -7.7968,4.87609 -16.7111,10.66604 -8.9143,5.78995 -16.37593,10.48485 -16.58143,10.4331 -0.62242,-0.15685 -9.24272,-5.0399 -9.2324,-5.22985 0.0132,-0.23995 45.96603,-30.02384 47.46813,-30.76591 1.65292,-0.8166 2.86142,-0.50928 5.41942,1.3781 2.30473,1.7005 3.34986,3.09455 3.35171,4.47065 0,0.66637 -15.47358,55.18001 -15.72926,55.41136 -0.0281,0.0255 -1.80865,-1.562 -3.9571,-3.52725 z m -191.40625,17.37135 c -1.54687,-1.3732 -2.85702,-2.6274 -2.91143,-2.7871 -0.17032,-0.49985 9.90496,-10.3891 14.14099,-13.87985 16.91343,-13.93785 37.21098,-23.3525 58.30169,-27.04225 12.79233,-2.238 27.12003,-2.46175 39.84375,-0.6224 13.83735,2.0004 24.99923,5.49905 37.8125,11.85215 9.83795,4.87795 17.1438,9.65385 25.46875,16.64925 4.08933,3.4362 13.125,12.3593 13.125,12.96145 0,0.1922 -1.27767,1.4784 -2.8393,2.85815 l -2.83932,2.50865 -4.7388,-4.7753 c -9.71863,-9.7936 -19.07095,-16.6183 -30.83258,-22.49955 -13.20927,-6.60515 -26.26905,-10.4429 -41.25,-12.1217 -5.43397,-0.609 -19.13475,-0.52495 -24.6875,0.15145 -28.19987,3.4349 -52.12795,15.1507 -71.49616,35.0063 -2.28383,2.3413 -4.18227,4.25255 -4.21875,4.2472 -0.0365,-0.005 -1.33196,-1.13325 -2.87884,-2.50645 z m 340.15625,90.35751 c 0,-0.1559 -2.6739,-7.2926 -5.942,-15.8593 -3.2681,-8.56676 -6.01362,-15.77181 -6.10112,-16.01126 -0.0875,-0.23945 -0.2229,-0.37155 -0.30087,-0.29355 -0.15885,0.15885 -12.3435,32.02751 -12.3435,32.28411 0,0.09 5.5547,0.1635 12.34375,0.1635 7.17809,0 12.34374,-0.1186 12.34374,-0.2835 z m -67.67399,41.2991 c 0.0993,-0.3008 9.71195,-24.0312 21.36135,-52.7344 l 21.18072,-52.18746 12.80033,-0.0804 12.80034,-0.0804 21.32885,52.58041 c 11.73085,28.9192 21.3285,52.6858 21.32815,52.8147 0,0.1289 -6.08275,0.234 -13.51635,0.2335 l -13.51565,0 -3.78685,-9.921 -3.7868,-9.921 -20.78047,-0.08 -20.78042,-0.08 -3.84308,10.0022 -3.84305,10.0022 -13.56385,0 c -12.7784,0 -13.55337,-0.031 -13.38322,-0.5469 z m -22.31275,-57.5078 c 3.88882,-1.2941 6.14282,-3.364 7.5465,-6.93036 0.9456,-2.40245 1.00585,-8.0537 0.11485,-10.77215 -1.53983,-4.698 -5.30023,-7.25515 -11.76133,-7.99795 -1.44762,-0.16645 -6.1828,-0.30365 -10.52265,-0.30495 l -7.89062,-0.005 0,13.4602 0,13.46021 10.23437,-0.1162 c 9.50053,-0.1078 10.38098,-0.1649 12.27888,-0.7965 z m -46.57576,5.2226 0,-52.83201 23.51563,0.1285 c 20.24498,0.11065 23.88508,0.2005 26.17188,0.646 18.59565,3.62245 29.38365,16.2439 29.37315,34.36535 -0.009,15.22176 -7.6913,26.69216 -21.50543,32.10876 -5.9396,2.3289 -7.72507,2.5549 -21.38335,2.7068 l -12.10937,0.1346 0,17.787 0,17.7871 -12.03125,0 -12.03126,0 0,-52.8321 z M 318.1903,784.0587 c 5.74541,-1.3546 8.45913,-4.70921 8.75341,-10.82071 0.32303,-6.70795 -2.32188,-10.57815 -8.4526,-12.3684 -1.27959,-0.37365 -4.01892,-0.51155 -12.49815,-0.62915 l -10.85938,-0.1506 0,12.2204 0,12.22046 10.54688,0 c 8.20979,0 10.98184,-0.1072 12.50984,-0.4674 z m -47.11922,7.3276 0,-52.83181 23.82813,0.1281 c 25.83237,0.1388 25.788,0.1361 31.73406,1.95815 10.67221,3.2703 18.88321,10.6277 22.44581,20.1124 1.5754,4.1942 2.09578,7.76545 1.89363,12.9963 -0.21135,5.4698 -0.96025,8.64356 -3.0233,12.81246 -2.6965,5.449 -7.1627,10.2985 -12.7359,13.829 -1.24708,0.79 -2.26743,1.5322 -2.26743,1.6493 0,0.1171 5.14998,9.4793 11.44435,20.8048 6.2944,11.3256 11.51255,20.7677 11.59593,20.9826 0.11985,0.3087 -2.66193,0.3906 -13.27865,0.3906 l -13.43023,0 -10.09305,-18.2031 c -5.55117,-10.0119 -10.36031,-18.59 -10.68697,-19.0627 l -0.59394,-0.8593 -6.38496,0 -6.38498,0 0,19.0625 0,19.0625 -12.03125,0 -12.03125,0 0,-52.8319 z m -192.8125,0.019 0,-52.81246 36.5625,0 36.5625,0 0,10.77935 0,10.77935 -24.45312,0.08 -24.45313,0.08 -0.0825,9.9219 -0.0825,9.92181 22.50438,0 22.50439,0 0,10.7792 0,10.7792 -22.42187,0.08 -22.42188,0.08 -0.0823,10.3906 -0.0823,10.3906 25.16046,0 25.16046,0 0,10.7813 0,10.7812 -37.1875,0 -37.1875,0 0,-52.8125 z m 125,54.2146 c -5.81589,-0.8003 -10.16406,-2.099 -14.76642,-4.4105 -11.20381,-5.6268 -17.98968,-14.4784 -20.93224,-27.3041 -0.67536,-2.9437 -0.68196,-3.2737 -0.78243,-39.14056 l -0.10132,-36.1719 11.86945,0 11.86945,0 0.11479,33.6719 c 0.10529,30.88526 0.16059,33.86586 0.66826,36.01556 1.621,6.8644 4.80619,11.4948 9.56834,13.9098 3.26538,1.6559 5.78579,2.1815 10.46087,2.1815 3.70826,0 4.73219,-0.1113 6.71875,-0.7303 7.34006,-2.287 11.3073,-6.8712 13.30879,-15.3785 0.4993,-2.1222 0.55801,-5.2788 0.66946,-35.99806 l 0.12217,-33.6719 11.86604,0 11.86604,0 -0.10581,36.01565 c -0.10345,35.20841 -0.1205,36.08241 -0.76102,38.99541 -3.96954,18.0533 -16.81903,29.4822 -36.02128,32.0389 -4.03519,0.5373 -11.64197,0.5262 -15.63189,-0.023 z m 214.27425,-20.7988 c 10.4661,-1.431 17.84493,-7.9241 21.28303,-18.7283 1.36712,-4.2961 1.97847,-8.718 1.98707,-14.3723 0.015,-9.8836 -1.9125,-17.36801 -5.99317,-23.27081 -3.76078,-5.4402 -8.7436,-8.63985 -15.62708,-10.0346 -3.46595,-0.70225 -9.80435,-0.4796 -12.95535,0.45515 -9.9883,2.96305 -15.9838,10.23895 -18.6496,22.63246 -0.92462,4.2987 -1.0096,14.7792 -0.155,19.1214 2.16983,11.0251 6.82155,18.0248 14.4296,21.713 5.06148,2.4537 10.08365,3.2493 15.6805,2.484 z m -10.21175,21.5786 c -17.59935,-1.8404 -31.34067,-11.2031 -38.72597,-26.3859 -2.6717,-5.4926 -4.41738,-11.6185 -5.39178,-18.921 -0.51137,-3.8325 -0.50375,-15.5494 0.0125,-19.375 2.3071,-17.09266 9.86068,-30.03571 22.10455,-37.87596 5.4336,-3.47935 12.26455,-5.8879 19.81308,-6.98605 5.09175,-0.7407 15.61845,-0.50285 20.4061,0.4611 14.7689,2.9736 25.9316,11.2238 32.7338,24.1931 4.54105,8.6581 6.55037,17.8323 6.54505,29.88351 -0.004,8.8777 -0.88875,15.0477 -3.15443,21.9964 -5.78095,17.7301 -19.03897,29.2036 -37.46802,32.4249 -4.12805,0.7216 -12.72013,1.0194 -16.875,0.5849 z m 96.56251,64.068 0,-33.75 23.4375,0 23.4375,0 0,6.875 0,6.875 -15.78125,0 -15.78125,0 0,6.4062 0,6.4063 14.375,0 14.375,0 0,6.875 0,6.875 -14.375,0 -14.375,0 0,6.7187 0,6.7188 16.09375,0 16.09375,0 0,6.875 0,6.875 -23.75,0 -23.75,0 0,-33.75 z m -167.07873,6.9518 c 0.12905,-0.2088 -7.36318,-20.2479 -7.69398,-20.5787 -0.19192,-0.1919 -7.9833,20.3015 -7.82426,20.58 0.1754,0.3071 15.32839,0.3059 15.51824,0 z m -43.0964,26.2563 c 0.11445,-0.3035 6.26794,-15.4933 13.67442,-33.755 l 13.46633,-33.2031 8.19425,0 8.19422,0 1.57303,3.8281 c 4.2395,10.3174 25.69787,63.3415 25.69787,63.5 0,0.1 -3.88862,0.1444 -8.64137,0.099 l -8.64138,-0.083 -2.38947,-6.25 -2.38943,-6.25 -13.3827,0 -13.38266,0 -2.39968,6.25 -2.39968,6.25 -8.69092,0.083 c -8.19646,0.078 -8.67908,0.052 -8.48283,-0.4688 z m -55.13738,-33.2081 0,-33.75 23.4375,0 23.4375,0 0,6.875 0,6.875 -15.78772,0 -15.78772,0 0.0846,6.3281 0.0846,6.3281 14.45313,0.081 14.45312,0.081 0,6.8719 0,6.8719 -14.53746,0 -14.53747,0 0.0843,6.6406 0.0843,6.6406 16.01563,0.081 16.01562,0.081 0,6.8721 0,6.8722 -23.75,0 -23.75,0 0,-33.75 z m -54.6875,0 0,-33.75 7.65625,0 7.65625,0 0,26.875 0,26.875 15.9375,0 15.9375,0 0,6.875 0,6.875 -23.59375,0 -23.59375,0 0,-33.75 z m 278.125,34.6702 c -11.87367,-1.4791 -20.1959,-8.2847 -23.21172,-18.9816 -0.66478,-2.3579 -0.68073,-2.8891 -0.7777,-25.9229 l -0.099,-23.5156 7.6692,0 7.66922,0 0.005,21.4844 c 0.005,23.645 0.011,23.7298 1.92478,27.3204 1.77375,3.3278 4.65925,5.2319 8.92997,5.8927 5.9211,0.9162 11.81688,-1.7967 13.83895,-6.368 1.54605,-3.4951 1.55168,-3.5917 1.55168,-26.6764 l 0,-21.6531 7.83578,0 7.83575,0 -0.13595,22.7344 c -0.11395,19.0422 -0.21483,23.0896 -0.6213,24.9218 -2.37493,10.7062 -9.53733,17.8398 -20.26178,20.1805 -3.2715,0.714 -8.92525,0.9854 -12.1525,0.5834 z m -67.65625,-0.025 c -9.15487,-1.1565 -17.37785,-5.8147 -22.67587,-12.8458 -4.69503,-6.2307 -6.85288,-13.0947 -6.85288,-21.7988 0,-6.8345 1.1822,-11.9488 3.99843,-17.2982 4.47572,-8.5015 12.1564,-14.356 22.02042,-16.7849 5.5355,-1.363 14.45648,-1.0581 20.15438,0.6889 7.59005,2.3271 13.58677,7.5497 16.97792,14.7863 1.19288,2.5456 1.86505,4.8579 1.41208,4.8579 -0.11198,0 -3.30258,0.9174 -7.09025,2.0385 -3.78765,1.1212 -7.00888,1.963 -7.15828,1.8707 -0.1494,-0.092 -0.4381,-0.6933 -0.64157,-1.3354 -0.89168,-2.8139 -3.28875,-5.8883 -5.8714,-7.5304 -5.03645,-3.2024 -13.3746,-3.212 -18.98735,-0.022 -3.84048,2.1828 -6.65765,5.7759 -8.31388,10.6036 -0.9814,2.8608 -1.01875,3.1506 -1.02635,7.9688 -0.007,4.3083 0.0918,5.3443 0.7127,7.489 2.3389,8.079 7.9035,12.5868 16.84148,13.6431 6.41267,0.7579 12.89377,-1.2523 17.1294,-5.3128 l 1.42712,-1.3681 -0.0905,-2.3819 -0.0906,-2.3818 -10.39062,-0.082 -10.39063,-0.082 0,-5.9333 0,-5.9333 17.5,0 17.5,0 0,11.441 0,11.4409 -3.35937,3.3429 c -6.72623,6.6932 -13.50118,9.9693 -22.64393,10.9498 -3.49757,0.3751 -6.96557,0.3648 -10.09045,-0.03 z"
       inkscape:connector-curvature="0" />
    <path
       style="fill:#6d6e71;fill-opacity:1"
       d="m 357.32108,529.0018 c -7.46812,-0.43857 -19.2944,-1.96267 -26.3595,-3.39707 -5.03196,-1.02163 -11.8679,-2.65915 -12.13556,-2.9071 -0.11762,-0.1089 0.48553,-3.01053 1.34028,-6.44803 5.66572,-22.78517 9.52458,-50.17462 11.27118,-80 0.5026,-8.5828 0.50213,-35.0886 0,-43.125 -0.50295,-8.03687 -1.4669,-18.69412 -2.24515,-24.82175 -0.33682,-2.65197 -0.5626,-4.87153 -0.50175,-4.93237 0.15325,-0.15329 4.07405,8.93812 6.69988,15.53537 15.93057,40.02495 26.74015,89.53753 30.82787,141.20473 0.2632,3.32665 0.47853,6.7368 0.47853,7.57812 l 0,1.52965 -3.82813,-0.0578 c -2.10545,-0.0318 -4.60155,-0.10322 -5.54687,-0.15875 z"
       id="path3397"
       inkscape:connector-curvature="0" />
    <path
       style="fill:#000000"
       d="m 382.20071,528.24948 c -0.0856,-0.41243 -0.31625,-2.36705 -0.5124,-4.34363 -1.62933,-16.41567 -8.08145,-50.74952 -15.17163,-80.73325 -0.77847,-3.29202 -1.6066,-6.7941 -1.8403,-7.78237 -0.23367,-0.98828 -0.3694,-1.79688 -0.3016,-1.79688 0.0678,0 0.49605,0.73828 0.9517,1.64063 0.45563,0.90235 2.24083,4.17187 3.9671,7.26562 15.08245,27.03015 35.17683,56.23013 51.2689,74.50098 2.7263,3.09542 3.35095,3.9765 3.10173,4.375 -1.05933,1.69405 -27.2108,6.813 -37.96608,7.43155 l -3.34167,0.1922 -0.15575,-0.74985 z"
       id="path3395"
       inkscape:connector-curvature="0" />
    <path
       id="path3391"
       style="fill:#000000"
       d="m 527.94609,509.84335 2.43545,0 5.12538,12.6213 5.02307,-12.64362 2.1036,-0.0155 0,7.3626 0,7.36262 -1.875,0 0.10056,-10.40971 -4.29896,10.40971 -2.2857,0 -3.98488,-10.42162 c -0.0571,3.47387 -0.11427,6.94775 -0.1714,10.42162 l -2.17238,0 c 2e-5,-5.1082 2.6e-4,-9.44971 2.6e-4,-14.68747 z m -9.375,1.5625 -4.66518,-0.0223 -0.0223,-1.54018 5.625,0 5.625,0 -0.0223,1.61579 -4.50893,-0.009 c -0.0553,4.36013 -0.11218,8.72025 -0.169,13.08036 l -1.86232,0 c 10e-6,-4.56437 3e-5,-8.44471 3e-5,-13.12467 z"
       inkscape:connector-curvature="0"
       sodipodi:nodetypes="cccccccccccccccccccccccccc" />
    <path
       style="fill:#f7941e;fill-opacity:1"
       d="m 291.85233,513.47485 c -41.72215,-18.14297 -75.6158,-50.0154 -95.91371,-90.194 -4.66226,-9.22867 -7.5807,-16.09655 -10.68994,-25.15625 -11.91899,-34.72953 -13.50727,-73.74644 -4.47309,-109.88384 10.58776,-42.35179 35.83649,-80.58846 70.57053,-106.87193 2.47158,-1.87025 4.74715,-3.40048 5.05681,-3.40048 0.44553,0 0.67089,0.48485 1.07992,2.32338 0.2843,1.27785 0.46967,2.51892 0.41194,2.75792 -0.0577,0.23898 -1.85823,1.9005 -4.00111,3.69223 -33.12054,27.69325 -56.58696,76.73653 -61.72435,128.9998 -3.10647,31.60258 1.41127,63.36467 13.36252,93.94542 12.98129,33.21645 34.83178,62.49448 61.41177,82.2872 8.51915,6.34378 18.49732,12.27263 26.93996,16.0072 1.63282,0.7223 3.07704,1.41138 3.20939,1.53133 0.13235,0.11992 -0.0218,1.33317 -0.34253,2.69615 -0.46105,1.95922 -0.70775,2.49347 -1.17813,2.55147 -0.32724,0.0403 -2.00123,-0.5382 -3.71998,-1.2856 z"
       id="path3389"
       inkscape:connector-curvature="0" />
    <path
       style="fill:#6d6e71;fill-opacity:1"
       d="M 432.58231,509.92148 C 371.93661,438.35233 324.03205,339.45635 291.38918,218.4371 c -5.58652,-20.71132 -16.14313,-65.0618 -15.61235,-65.59067 0.22577,-0.22495 97.46465,-39.25308 97.79938,-39.25308 0.46395,0 0.3887,0.98468 -0.61488,8.04393 -5.54462,39.00177 -7.59205,91.76162 -5.31487,136.95607 4.21382,83.62906 20.41695,156.31885 48.44762,217.34375 4.8284,10.51175 12.17258,24.5202 17.81688,33.98438 1.51195,2.53515 2.71032,4.60937 2.6631,4.60937 -0.0473,0 -1.84355,-2.07422 -3.99175,-4.60937 z"
       id="path3387"
       inkscape:connector-curvature="0" />
    <path
       style="fill:#f7941e;fill-opacity:1"
       d="m 458.12923,504.40195 c -0.61637,-1.10215 -1.12065,-2.20062 -1.12065,-2.44107 0,-0.24043 1.23048,-1.11908 2.73438,-1.95258 17.21312,-9.53982 33.8829,-24.43772 47.2147,-42.1962 15.7093,-20.92542 27.42518,-46.59162 33.75503,-73.9478 5.93097,-25.63236 7.1365,-51.25323 3.62997,-77.14595 -4.19905,-31.00615 -15.11622,-61.0491 -31.00142,-85.3125 -10.46173,-15.97952 -23.18208,-29.62302 -37.48781,-40.20832 -1.94277,-1.43753 -3.53235,-2.66433 -3.53235,-2.72618 0,-0.62687 2.27785,-4.878 2.61373,-4.878 0.82037,0 11.41572,7.66733 17.17253,12.4269 31.56487,26.097 54.091,61.43737 64.285,100.85435 9.2001,35.57381 8.01465,73.96428 -3.35805,108.75 -13.40638,41.00608 -39.5536,75.75863 -75.40071,100.21588 -6.45865,4.40652 -16.89435,10.56537 -17.90217,10.56537 -0.26713,0 -0.9805,-0.89225 -1.60218,-2.0039 z"
       id="path3385"
       inkscape:connector-curvature="0" />
    <path
       style="fill:#000000"
       d="m 407.17948,420.43495 c -0.51567,-1.4365 -3.96655,-14.30357 -5.94162,-22.1541 -10.05883,-39.98281 -16.1703,-80.46636 -18.58708,-123.125 -1.39217,-24.57306 -1.21835,-54.54851 0.46478,-80.15625 1.60127,-24.36272 4.9006,-49.95665 9.013,-69.91675 1.42835,-6.93272 1.56762,-7.427 2.0928,-7.427 0.45225,0 63.21232,35.92653 63.45992,36.32715 0.1177,0.19045 -0.60122,1.97368 -1.5976,3.9627 -5.607,11.19298 -12.6792,27.68385 -18.30307,42.6789 -15.89145,42.37171 -26.59838,86.15167 -31.21988,127.65625 -1.72602,15.50106 -2.36425,27.32166 -2.36445,43.79348 -2.5e-4,16.83475 0.7781,29.65942 2.62428,43.23777 0.6665,4.90213 0.7603,6.24085 0.35892,5.12285 z"
       id="path3358"
       inkscape:connector-curvature="0" />
  </g>
</svg>
